<svg width="240" height="240" viewBox="0 0 240 240" fill="none" xmlns="http://www.w3.org/2000/svg">
<path d="M100 136L159 77C160.833 75.1667 163.167 74.25 166 74.25C168.833 74.25 171.167 75.1667 173 77C174.833 78.8333 175.75 81.1667 175.75 84C175.75 86.8333 174.833 89.1667 173 91L107 157C105 159 102.667 160 100 160C97.3333 160 95 159 93 157L67 131C65.1667 129.167 64.25 126.833 64.25 124C64.25 121.167 65.1667 118.833 67 117C68.8333 115.167 71.1667 114.25 74 114.25C76.8333 114.25 79.1667 115.167 81 117L100 136Z" fill="#6D6F8C"/>
</svg>
