<svg width="90" height="90" viewBox="0 0 90 90" fill="none" xmlns="http://www.w3.org/2000/svg">
<path d="M75.9375 67.5C74.1982 67.5052 72.5031 68.0486 71.085 69.0558C69.6669 70.063 68.5953 71.4844 68.0175 73.125H60.8006L56.4187 64.3613C63.0422 60.4463 67.5 53.2519 67.5 45C67.5 36.7481 63.0422 29.5538 56.4187 25.6388L60.8006 16.875H68.0175C68.5953 18.5156 69.6669 19.937 71.085 20.9442C72.5031 21.9514 74.1982 22.4948 75.9375 22.5C80.5894 22.5 84.375 18.7144 84.375 14.0625C84.375 9.41062 80.5894 5.625 75.9375 5.625C74.1982 5.63017 72.5031 6.17364 71.085 7.18081C69.6669 8.18797 68.5953 9.60943 68.0175 11.25H60.8006C59.7551 11.2468 58.7296 11.5365 57.8403 12.0863C56.951 12.636 56.2335 13.4239 55.7691 14.3606L51.2494 23.3972C49.2638 22.8234 47.1712 22.5 45 22.5C42.8288 22.5 40.7362 22.8234 38.7506 23.4L34.2281 14.355C33.7627 13.4189 33.0444 12.6319 32.1546 12.0831C31.2648 11.5343 30.2391 11.2457 29.1938 11.25H21.9853C21.4073 9.60898 20.3353 8.1872 18.9167 7.18C17.4981 6.1728 15.8023 5.62959 14.0625 5.625C9.41062 5.625 5.625 9.41062 5.625 14.0625C5.625 18.7144 9.41062 22.5 14.0625 22.5C15.8018 22.4948 17.4969 21.9514 18.915 20.9442C20.3331 19.937 21.4047 18.5156 21.9825 16.875H29.1994L33.5812 25.6388C26.955 29.5538 22.5 36.7481 22.5 45C22.5 53.2519 26.955 60.4463 33.5812 64.3613L29.1994 73.125H21.9825C21.4047 71.4844 20.3331 70.063 18.915 69.0558C17.4969 68.0486 15.8018 67.5052 14.0625 67.5C9.41062 67.5 5.625 71.2856 5.625 75.9375C5.625 80.5894 9.41062 84.375 14.0625 84.375C15.8018 84.3698 17.4969 83.8264 18.915 82.8192C20.3331 81.812 21.4047 80.3906 21.9825 78.75H29.1994C30.2449 78.7532 31.2704 78.4635 32.1597 77.9137C33.049 77.364 33.7665 76.5761 34.2309 75.6394L38.7506 66.6028C40.7362 67.1766 42.8288 67.5 45 67.5C47.1712 67.5 49.2638 67.1766 51.2494 66.6L55.7691 75.6394C56.2335 76.5761 56.951 77.364 57.8403 77.9137C58.7296 78.4635 59.7551 78.7532 60.8006 78.75H68.0175C68.5953 80.3906 69.6669 81.812 71.085 82.8192C72.5031 83.8264 74.1982 84.3698 75.9375 84.375C80.5894 84.375 84.375 80.5894 84.375 75.9375C84.375 71.2856 80.5894 67.5 75.9375 67.5ZM75.9375 11.25C76.6617 11.2824 77.3454 11.5929 77.8464 12.1168C78.3474 12.6407 78.627 13.3376 78.627 14.0625C78.627 14.7874 78.3474 15.4843 77.8464 16.0082C77.3454 16.5321 76.6617 16.8426 75.9375 16.875C75.1916 16.875 74.4762 16.5787 73.9488 16.0512C73.4213 15.5238 73.125 14.8084 73.125 14.0625C73.125 13.3166 73.4213 12.6012 73.9488 12.0738C74.4762 11.5463 75.1916 11.25 75.9375 11.25ZM14.0625 16.875C13.3383 16.8426 12.6546 16.5321 12.1536 16.0082C11.6526 15.4843 11.373 14.7874 11.373 14.0625C11.373 13.3376 11.6526 12.6407 12.1536 12.1168C12.6546 11.5929 13.3383 11.2824 14.0625 11.25C14.7867 11.2824 15.4704 11.5929 15.9714 12.1168C16.4724 12.6407 16.752 13.3376 16.752 14.0625C16.752 14.7874 16.4724 15.4843 15.9714 16.0082C15.4704 16.5321 14.7867 16.8426 14.0625 16.875ZM14.0625 78.75C13.3383 78.7176 12.6546 78.4071 12.1536 77.8832C11.6526 77.3593 11.373 76.6624 11.373 75.9375C11.373 75.2126 11.6526 74.5157 12.1536 73.9918C12.6546 73.4679 13.3383 73.1574 14.0625 73.125C14.7867 73.1574 15.4704 73.4679 15.9714 73.9918C16.4724 74.5157 16.752 75.2126 16.752 75.9375C16.752 76.6624 16.4724 77.3593 15.9714 77.8832C15.4704 78.4071 14.7867 78.7176 14.0625 78.75ZM28.9294 45C28.9294 36.1406 36.1378 28.9294 45 28.9294C53.8622 28.9294 61.0706 36.1378 61.0706 45C61.0706 53.8622 53.8622 61.0706 45 61.0706C36.1378 61.0706 28.9294 53.8622 28.9294 45ZM75.9375 78.75C75.2133 78.7176 74.5296 78.4071 74.0286 77.8832C73.5276 77.3593 73.248 76.6624 73.248 75.9375C73.248 75.2126 73.5276 74.5157 74.0286 73.9918C74.5296 73.4679 75.2133 73.1574 75.9375 73.125C76.6617 73.1574 77.3454 73.4679 77.8464 73.9918C78.3474 74.5157 78.627 75.2126 78.627 75.9375C78.627 76.6624 78.3474 77.3593 77.8464 77.8832C77.3454 78.4071 76.6617 78.7176 75.9375 78.75ZM52.2844 35.3166L56.25 39.375L42.1875 53.4375L33.75 45L37.8112 40.9388L42.1987 45.5006L52.2844 35.3166Z" fill="#6D6F8C"/>
</svg>
