<svg width="90" height="90" viewBox="0 0 90 90" fill="none" xmlns="http://www.w3.org/2000/svg">
<path d="M45 82.5C39.8125 82.5 34.9375 81.515 30.375 79.545C25.8125 77.575 21.8438 74.9038 18.4688 71.5312C15.0938 68.1588 12.4225 64.19 10.455 59.625C8.48751 55.06 7.5025 50.185 7.5 45C7.4975 39.815 8.48251 34.94 10.455 30.375C12.4275 25.81 15.0988 21.8413 18.4688 18.4688C21.8388 15.0963 25.8075 12.425 30.375 10.455C34.9425 8.485 39.8175 7.5 45 7.5C50.1825 7.5 55.0575 8.485 59.625 10.455C64.1925 12.425 68.1613 15.0963 71.5313 18.4688C74.9013 21.8413 77.5738 25.81 79.5488 30.375C81.5238 34.94 82.5075 39.815 82.5 45C82.4925 50.185 81.5075 55.06 79.545 59.625C77.5825 64.19 74.9113 68.1588 71.5313 71.5312C68.1513 74.9038 64.1825 77.5762 59.625 79.5487C55.0675 81.5212 50.1925 82.505 45 82.5ZM35.625 50.625C39.25 50.625 42.3438 49.3438 44.9063 46.7812C47.4688 44.2188 48.75 41.125 48.75 37.5C48.75 33.875 47.4688 30.7812 44.9063 28.2188C42.3438 25.6562 39.25 24.375 35.625 24.375C32 24.375 28.9063 25.6562 26.3438 28.2188C23.7813 30.7812 22.5 33.875 22.5 37.5C22.5 41.125 23.7813 44.2188 26.3438 46.7812C28.9063 49.3438 32 50.625 35.625 50.625ZM61.875 54.375C64.5 54.375 66.7188 53.4688 68.5313 51.6562C70.3438 49.8438 71.25 47.625 71.25 45C71.25 42.375 70.3438 40.1562 68.5313 38.3438C66.7188 36.5313 64.5 35.625 61.875 35.625C59.25 35.625 57.0313 36.5313 55.2188 38.3438C53.4063 40.1562 52.5 42.375 52.5 45C52.5 47.625 53.4063 49.8438 55.2188 51.6562C57.0313 53.4688 59.25 54.375 61.875 54.375ZM45 75C50.3125 75 55.1563 73.75 59.5313 71.25C63.9063 68.75 67.4375 65.4375 70.125 61.3125C68.8125 60.9375 67.4688 60.625 66.0938 60.375C64.7188 60.125 63.3125 60 61.875 60C58.5625 60 54.5625 60.9688 49.875 62.9062C45.1875 64.8438 41.4375 68.6563 38.625 74.3438C39.6875 74.5938 40.75 74.7663 41.8125 74.8612C42.875 74.9562 43.9375 75.0025 45 75ZM33.0938 72.5625C35.2813 68.0625 37.7663 64.7187 40.5488 62.5312C43.3313 60.3437 45.44 58.875 46.875 58.125C45.0625 57.5625 43.2338 57.11 41.3888 56.7675C39.5438 56.425 37.6225 56.2525 35.625 56.25C32.8125 56.25 30.0313 56.5938 27.2813 57.2812C24.5313 57.9688 21.875 58.9375 19.3125 60.1875C20.9375 62.875 22.9225 65.2975 25.2675 67.455C27.6125 69.6125 30.2213 71.315 33.0938 72.5625Z" fill="#6D6F8C"/>
</svg>
