<svg width="60" height="60" viewBox="0 0 60 60" fill="none" xmlns="http://www.w3.org/2000/svg">
<path d="M17.5 45C13.3333 45 9.79167 43.5417 6.875 40.625C3.95833 37.7083 2.5 34.1667 2.5 30C2.5 25.8333 3.95833 22.2917 6.875 19.375C9.79167 16.4583 13.3333 15 17.5 15C20.875 15 23.8233 15.9483 26.345 17.845C28.8667 19.7417 30.6267 22.1267 31.625 25H57.5V35H52.5V45H42.5V35H31.625C30.625 37.875 28.8642 40.2608 26.3425 42.1575C23.8208 44.0542 20.8733 45.0017 17.5 45ZM17.5 35C18.875 35 20.0525 34.5108 21.0325 33.5325C22.0125 32.5542 22.5017 31.3767 22.5 30C22.4983 28.6233 22.0092 27.4467 21.0325 26.47C20.0558 25.4933 18.8783 25.0033 17.5 25C16.1217 24.9967 14.945 25.4867 13.97 26.47C12.995 27.4533 12.505 28.63 12.5 30C12.495 31.37 12.985 32.5475 13.97 33.5325C14.955 34.5175 16.1317 35.0067 17.5 35Z" fill="#6D6F8C"/>
</svg>
