<svg width="90" height="90" viewBox="0 0 90 90" fill="none" xmlns="http://www.w3.org/2000/svg">
<path d="M74.25 84.75L5.25 15.75L10.5 10.5L79.5 79.5L74.25 84.75ZM52.5 41.8125L45 34.3125V11.25H67.5V26.25H52.5V41.8125ZM37.5 78.75C33.375 78.75 29.8438 77.2813 26.9063 74.3438C23.9688 71.4063 22.5 67.875 22.5 63.75C22.5 59.625 23.9688 56.0937 26.9063 53.1562C29.8438 50.2187 33.375 48.75 37.5 48.75C38.9375 48.75 40.2663 48.9225 41.4863 49.2675C42.7063 49.6125 43.8775 50.1275 45 50.8125V45L52.5 52.5V63.75C52.5 67.875 51.0313 71.4063 48.0938 74.3438C45.1563 77.2813 41.625 78.75 37.5 78.75Z" fill="#6D6F8C"/>
</svg>
