<svg width="68" height="68" viewBox="0 0 68 68" fill="none" xmlns="http://www.w3.org/2000/svg">
<path d="M0.25 67.75V60.25H7.75V7.75C7.75 5.6875 8.485 3.9225 9.955 2.455C11.425 0.9875 13.19 0.2525 15.25 0.25H52.75C54.8125 0.25 56.5788 0.985 58.0488 2.455C59.5187 3.925 60.2525 5.69 60.25 7.75V60.25H67.75V67.75H0.25ZM45.25 60.25H52.75V7.75H35.875V3.625C38.625 4.125 40.875 5.40625 42.625 7.46875C44.375 9.53125 45.25 11.9375 45.25 14.6875V60.25ZM30.25 37.75C31.3125 37.75 32.2038 37.39 32.9238 36.67C33.6437 35.95 34.0025 35.06 34 34C33.9975 32.94 33.6375 32.05 32.92 31.33C32.2025 30.61 31.3125 30.25 30.25 30.25C29.1875 30.25 28.2975 30.61 27.58 31.33C26.8625 32.05 26.5025 32.94 26.5 34C26.4975 35.06 26.8575 35.9513 27.58 36.6738C28.3025 37.3963 29.1925 37.755 30.25 37.75Z" fill="#6D6F8C"/>
</svg>
