<svg width="180" height="180" viewBox="0 0 180 180" fill="none" xmlns="http://www.w3.org/2000/svg">
<path fill-rule="evenodd" clip-rule="evenodd" d="M84.1499 12.8314C80.74 12.8314 77.4697 14.186 75.0586 16.5971C72.6474 19.0083 71.2928 22.2786 71.2928 25.6885C71.2928 29.0985 72.6474 32.3687 75.0586 34.7799C77.4697 37.1911 80.74 38.5457 84.1499 38.5457H119.224C128.104 38.7186 136.561 42.3673 142.779 48.7079C148.998 55.0486 152.481 63.5754 152.481 72.4564C152.481 81.3374 148.998 89.8641 142.779 96.2048C136.561 102.545 128.104 106.194 119.224 106.367H61.9328V84.15C61.9322 81.6075 61.1779 79.1222 59.7651 77.0083C58.3523 74.8945 56.3445 73.247 53.9955 72.2741C51.6465 71.3012 49.0618 71.0466 46.5681 71.5425C44.0744 72.0383 41.7837 73.2624 39.9856 75.06L4.93707 110.109C3.13145 111.902 1.8988 114.191 1.39526 116.686C0.891724 119.181 1.13995 121.769 2.1085 124.123C2.73422 125.666 3.6685 127.067 4.91136 128.327L39.9856 163.401C41.7837 165.199 44.0744 166.423 46.5681 166.919C49.0618 167.415 51.6465 167.16 53.9955 166.187C56.3445 165.214 58.3523 163.567 59.7651 161.453C61.1779 159.339 61.9322 156.854 61.9328 154.311V132.081H119.224C127.128 132.197 134.976 130.741 142.312 127.797C149.647 124.852 156.325 120.479 161.955 114.931C167.585 109.382 172.056 102.77 175.108 95.4784C178.16 88.1867 179.731 80.361 179.731 72.4564C179.731 64.5518 178.16 56.7261 175.108 49.4343C172.056 42.1426 167.585 35.5304 161.955 29.9822C156.325 24.434 149.647 20.0605 142.312 17.1162C134.976 14.1718 127.128 12.7153 119.224 12.8314H84.1499Z" fill="#6D6F8C"/>
<rect x="2" y="8.36401" width="9" height="240" rx="4.5" transform="rotate(-45 2 8.36401)" fill="#6D6F8C"/>
</svg>
