<svg width="210" height="210" viewBox="0 0 210 210" fill="none" xmlns="http://www.w3.org/2000/svg">
<path d="M111.282 181.239C97.045 185.264 81.8744 184.453 68.1476 178.931C54.4209 173.41 42.9137 163.491 35.4291 150.728C27.9445 137.965 24.9054 123.08 26.7881 108.404C28.6707 93.7291 35.3687 80.0929 45.8325 69.6326L52.1325 63.3326C62.3929 53.066 75.7161 46.4178 90.0889 44.3925C104.462 42.3672 119.103 45.0749 131.801 52.1064L152.687 31.5876C156.014 28.2912 160.483 26.4039 165.165 26.318C169.847 26.2321 174.382 27.9544 177.827 31.1266C181.272 34.2988 183.362 38.6768 183.661 43.3502C183.961 48.0236 182.448 52.6326 179.436 56.2189L178.421 57.3214L157.894 78.2076C164.684 90.4687 167.448 104.554 165.796 118.472C164.144 132.39 158.16 145.436 148.689 155.768" stroke="#6D6F8C" stroke-width="9" stroke-linecap="round" stroke-linejoin="round"/>
<path d="M81.375 46.375L163.625 128.625M96.25 157.5C96.25 160.947 96.929 164.361 98.2482 167.545C99.5673 170.73 101.501 173.624 103.938 176.062C106.376 178.499 109.27 180.433 112.455 181.752C115.639 183.071 119.053 183.75 122.5 183.75C125.947 183.75 129.361 183.071 132.545 181.752C135.73 180.433 138.624 178.499 141.062 176.062C143.499 173.624 145.433 170.73 146.752 167.545C148.071 164.361 148.75 160.947 148.75 157.5C148.75 154.053 148.071 150.639 146.752 147.455C145.433 144.27 143.499 141.376 141.062 138.938C138.624 136.501 135.73 134.567 132.545 133.248C129.361 131.929 125.947 131.25 122.5 131.25C119.053 131.25 115.639 131.929 112.455 133.248C109.27 134.567 106.376 136.501 103.938 138.938C101.501 141.376 99.5673 144.27 98.2482 147.455C96.929 150.639 96.25 154.053 96.25 157.5Z" stroke="#6D6F8C" stroke-width="9" stroke-linecap="round" stroke-linejoin="round"/>
</svg>
