<svg width="276" height="258" viewBox="0 0 276 258" fill="none" xmlns="http://www.w3.org/2000/svg">
<path d="M192.5 52.5C192.5 42.875 184.625 35 175 35H35C25.375 35 17.5 42.875 17.5 52.5M192.5 52.5V157.5C192.5 167.125 184.625 175 175 175H35C25.375 175 17.5 167.125 17.5 157.5V52.5M192.5 52.5L105 113.75L17.5 52.5" stroke="#6D6F8C" stroke-width="4" stroke-linecap="round" stroke-linejoin="round"/>
<path d="M219.399 148.601L229.298 138.702L201.957 137.759L202.9 165.101L212.799 155.201C224.502 166.904 225.136 185.291 214.213 196.213C210.881 199.546 206.829 201.83 202.499 202.978L202.843 212.958C209.909 211.621 216.306 208.265 221.285 203.284C235.87 188.699 235.026 164.228 219.399 148.601ZM173.201 194.799C161.499 183.096 160.865 164.709 171.787 153.787C175.12 150.454 179.172 148.17 183.501 147.022L183.157 137.043C176.092 138.379 169.694 141.735 164.716 146.716C150.131 161.301 150.975 185.772 166.602 201.399L156.702 211.298L184.044 212.241L183.101 184.9L173.201 194.799Z" fill="#6D6F8C"/>
</svg>
