<svg width="90" height="90" viewBox="0 0 90 90" fill="none" xmlns="http://www.w3.org/2000/svg">
<path d="M37.5 78.75C33.375 78.75 29.8438 77.2812 26.9063 74.3438C23.9688 71.4063 22.5 67.875 22.5 63.75C22.5 59.625 23.9688 56.0938 26.9063 53.1562C29.8438 50.2188 33.375 48.75 37.5 48.75C38.9375 48.75 40.2662 48.9225 41.4862 49.2675C42.7062 49.6125 43.8775 50.1275 45 50.8125V15C45 13.9375 45.36 13.0475 46.08 12.33C46.8 11.6125 47.69 11.2525 48.75 11.25H63.75C64.8125 11.25 65.7037 11.61 66.4237 12.33C67.1437 13.05 67.5025 13.94 67.5 15V22.5C67.5 23.5625 67.14 24.4537 66.42 25.1737C65.7 25.8937 64.81 26.2525 63.75 26.25H52.5V63.75C52.5 67.875 51.0312 71.4063 48.0938 74.3438C45.1562 77.2812 41.625 78.75 37.5 78.75Z" fill="#6D6F8C"/>
</svg>
