<svg width="60" height="60" viewBox="0 0 60 60" fill="none" xmlns="http://www.w3.org/2000/svg">
<path d="M22.5 30.0001C19.75 30.0001 17.3958 29.0209 15.4375 27.0626C13.4792 25.1042 12.5 22.7501 12.5 20.0001C12.5 17.2501 13.4792 14.8959 15.4375 12.9376C17.3958 10.9792 19.75 10.0001 22.5 10.0001C25.25 10.0001 27.6042 10.9792 29.5625 12.9376C31.5208 14.8959 32.5 17.2501 32.5 20.0001C32.5 22.7501 31.5208 25.1042 29.5625 27.0626C27.6042 29.0209 25.25 30.0001 22.5 30.0001ZM42.5 47.5001C43.9167 47.5001 45.0942 47.0834 46.0325 46.2501C46.9708 45.4167 47.46 44.1667 47.5 42.5001C47.5417 41.0834 47.0733 39.8959 46.095 38.9376C45.1167 37.9792 43.9183 37.5001 42.5 37.5001C41.0817 37.5001 39.8942 37.9792 38.9375 38.9376C37.9808 39.8959 37.5017 41.0834 37.5 42.5001C37.4983 43.9167 37.9775 45.1042 38.9375 46.0626C39.8975 47.0209 41.085 47.5001 42.5 47.5001ZM54 57.5001L47.625 51.1251C46.875 51.5834 46.0733 51.9276 45.22 52.1576C44.3667 52.3876 43.46 52.5017 42.5 52.5001C39.75 52.5001 37.3958 51.5209 35.4375 49.5626C33.4792 47.6042 32.5 45.2501 32.5 42.5001C32.5 39.7501 33.4792 37.3959 35.4375 35.4376C37.3958 33.4792 39.75 32.5001 42.5 32.5001C45.25 32.5001 47.6042 33.4792 49.5625 35.4376C51.5208 37.3959 52.5 39.7501 52.5 42.5001C52.5 43.4584 52.3858 44.3651 52.1575 45.2201C51.9292 46.0751 51.585 46.8767 51.125 47.6251L57.5 54.0001L54 57.5001ZM2.5 50.0001V43.0001C2.5 41.5834 2.865 40.2817 3.595 39.0951C4.325 37.9084 5.29333 37.0017 6.5 36.3751C9.08333 35.0834 11.7083 34.1151 14.375 33.4701C17.0417 32.8251 19.75 32.5017 22.5 32.5001C23.8333 32.5001 25.1775 32.5734 26.5325 32.7201C27.8875 32.8667 29.2308 33.1059 30.5625 33.4376C29.5625 34.7709 28.8025 36.2084 28.2825 37.7501C27.7625 39.2917 27.5017 40.8751 27.5 42.5001C27.5 43.8334 27.6667 45.1359 28 46.4076C28.3333 47.6792 28.8333 48.8767 29.5 50.0001H2.5ZM47.5 20.0001C47.5 22.7501 46.5208 25.1042 44.5625 27.0626C42.6042 29.0209 40.25 30.0001 37.5 30.0001C37.0417 30.0001 36.4583 29.9484 35.75 29.8451C35.0417 29.7417 34.4583 29.6267 34 29.5001C35.125 28.1667 35.99 26.6876 36.595 25.0626C37.2 23.4376 37.5017 21.7501 37.5 20.0001C37.4983 18.2501 37.1967 16.5626 36.595 14.9376C35.9933 13.3126 35.1283 11.8334 34 10.5001C34.5833 10.2917 35.1667 10.1559 35.75 10.0926C36.3333 10.0292 36.9167 9.9984 37.5 10.0001C40.25 10.0001 42.6042 10.9792 44.5625 12.9376C46.5208 14.8959 47.5 17.2501 47.5 20.0001Z" fill="#6D6F8C"/>
</svg>
