<svg width="120" height="120" viewBox="0 0 120 120" fill="none" xmlns="http://www.w3.org/2000/svg">
<path d="M71.7128 70.0345L77.034 70.593V113.906L62.3359 98.2113V73.242L66.6048 75.3267L71.7128 70.0345ZM48.287 70.0345L42.9629 70.593V113.906L57.6608 98.2113V73.242L53.3922 75.3267L48.287 70.0345ZM88.5948 42.8986L90.3168 48.8925L85.1476 52.3777L84.7147 58.6052L78.6655 60.1111L76.1336 65.8097L69.932 65.1546L65.6019 69.6281L59.9999 66.8913L54.3979 69.6281L50.0678 65.1398L43.8662 65.7949L41.3343 60.0966L35.285 58.6052L34.8522 52.3863L29.6683 48.8895L31.3904 42.8958L27.7356 37.8464L31.4022 32.8027L29.6683 26.8207L34.8404 23.3355L35.2733 17.1164L41.3343 15.6253L43.8662 9.92695L50.0678 10.5818L54.3979 6.09375L59.9999 8.83055L65.6019 6.09375L69.932 10.5818L76.1336 9.92695L78.6655 15.6253L84.7147 17.1312L85.1476 23.3501L90.3168 26.8352L88.5948 32.8291L92.2642 37.8464L88.5948 42.8986ZM77.0603 37.8464C77.0603 34.4976 76.0673 31.2241 74.2068 28.4396C72.3463 25.6552 69.7019 23.4851 66.6081 22.2035C63.5142 20.922 60.1098 20.5867 56.8253 21.24C53.5409 21.8933 50.524 23.5059 48.156 25.8739C45.7881 28.2418 44.1755 31.2588 43.5222 34.5432C42.8689 37.8276 43.2042 41.232 44.4857 44.3259C45.7672 47.4198 47.9374 50.0641 50.7218 51.9246C53.5062 53.7851 56.7798 54.7781 60.1286 54.7781C64.617 54.7711 68.9196 52.985 72.0934 49.8112C75.2672 46.6374 77.0533 42.3348 77.0603 37.8464ZM60.1286 25.5926C57.705 25.5926 55.3359 26.3112 53.3209 27.6577C51.3058 29.0041 49.7352 30.9178 48.8077 33.1569C47.8803 35.3959 47.6376 37.8597 48.1104 40.2366C48.5832 42.6136 49.7502 44.797 51.4639 46.5107C53.1776 48.2244 55.3609 49.3915 57.7379 49.8643C60.1148 50.3371 62.5786 50.0945 64.8176 49.1671C67.0567 48.2397 68.9705 46.6691 70.3169 44.6541C71.6634 42.639 72.3821 40.2699 72.3822 37.8464C72.3729 34.6002 71.0786 31.4897 68.7824 29.1951C66.4861 26.9005 63.3748 25.6085 60.1286 25.6015V25.5926Z" fill="#E2E2E8"/>
</svg>
